<svg id="Capa_1" enable-background="new 0 0 511.267 511.267" height="512" viewBox="0 0 511.267 511.267" width="512" xmlns="http://www.w3.org/2000/svg"><g><g><path d="m496.875 351.45h-408.797c-3.813 0-6.904-3.091-6.904-6.904v-177.824c0-3.813 3.091-6.904 6.904-6.904h408.797c3.813 0 6.904 3.091 6.904 6.904v177.824c0 3.813-3.091 6.904-6.904 6.904z" fill="#f2fbff"/></g><g><path d="m503.777 166.718v177.83c0 3.814-3.085 6.9-6.9 6.9h-19.97c3.814 0 6.9-3.085 6.9-6.9v-177.83c0-3.814-3.085-6.899-6.9-6.899h19.97c3.815 0 6.9 3.085 6.9 6.899z" fill="#dff6fd"/></g><g><path d="m43.242 189.549h37.932v132.169h-37.932z" fill="#8d9ca8"/></g><g><path d="m62.208 189.549h18.966v132.169h-18.966z" fill="#7a8c98"/></g><g><path d="m39.546 446.431h-28.362c-2.041 0-3.696-1.655-3.696-3.696v-374.203c0-2.041 1.655-3.696 3.696-3.696h28.362c2.041 0 3.696 1.655 3.696 3.696v374.204c0 2.04-1.655 3.695-3.696 3.695z" fill="#c5d3dd"/></g><g><path d="m43.246 68.527v374.213c0 2.037-1.658 3.694-3.704 3.694h-17.874c2.037 0 3.694-1.658 3.694-3.694v-374.213c0-2.037-1.658-3.694-3.694-3.694h17.873c2.047 0 3.705 1.658 3.705 3.694z" fill="#b6c4cf"/></g><g><path d="m297.418 221.946c-1.383-3.363-4.624-5.533-8.259-5.533-.002 0-.005 0-.007 0-3.638.002-6.879 2.18-8.258 5.546-.023.058-.047.115-.068.173l-23.889 62.722c-1.472 3.865.468 8.192 4.333 9.664 3.86 1.472 8.191-.467 9.663-4.333l4.113-10.798h28.044l4.067 10.777c1.131 2.999 3.981 4.846 7.007 4.846.879 0 1.773-.156 2.644-.484 3.869-1.46 5.822-5.781 4.362-9.65l-23.671-62.725c-.027-.069-.054-.137-.081-.205zm-16.668 42.463 8.382-22.008 8.305 22.008z"/><path d="m205.111 216.412c-4.136 0-7.489 3.353-7.489 7.489v63.565c0 3.648 2.629 6.765 6.224 7.381.53.091 16.375.147 23.583.107 4.135-.023 7.47-3.395 7.447-7.531s-3.405-7.436-7.531-7.447c-5.091.029-10.555.049-14.746.053v-56.129c0-4.135-3.352-7.488-7.488-7.488z"/><path d="m169.113 286.794c1.182-1.053 2.305-2.211 3.338-3.442 2.658-3.168 2.244-7.892-.924-10.551-3.169-2.658-7.892-2.244-10.551.925-.568.678-1.184 1.313-1.825 1.884-3.293 2.933-7.491 4.42-12.477 4.42-13.41 0-24.32-10.91-24.32-24.32s10.909-24.321 24.32-24.321c4.875 0 9.575 1.435 13.594 4.149 3.427 2.315 8.082 1.414 10.397-2.013s1.414-8.082-2.014-10.397c-6.504-4.394-14.104-6.716-21.977-6.716-21.668 0-39.297 17.629-39.297 39.298s17.629 39.298 39.297 39.298c8.645 0 16.405-2.84 22.439-8.214z"/><path d="m380.997 249.186c-7.892-2.911-15.235-6.083-17.404-7.034-1.967-1.539-1.903-3.707-1.774-4.605.174-1.211 1.046-4.168 5.385-5.476 9.233-2.78 17.739 3.975 17.937 4.135 3.164 2.626 7.862 2.208 10.513-.946 2.661-3.166 2.251-7.89-.914-10.551-.593-.498-14.714-12.144-31.856-6.979-8.608 2.593-14.697 9.371-15.891 17.688-1.119 7.792 2.258 15.288 8.814 19.562.33.216.678.405 1.038.565.368.165 9.116 4.058 18.967 7.693 2.899 1.069 9.543 4.104 8.637 9.177-.669 3.743-5.179 7.615-11.569 7.615-6.452 0-12.665-2.606-16.62-6.97-2.777-3.065-7.512-3.298-10.578-.521-3.065 2.777-3.298 7.513-.521 10.578 6.747 7.446 17.109 11.891 27.719 11.891 13.182 0 24.248-8.394 26.314-19.96 1.551-8.686-2.414-20.041-18.197-25.862z"/><path d="m450.742 280.031c-6.452 0-12.665-2.606-16.62-6.97-2.777-3.065-7.513-3.298-10.578-.521s-3.298 7.513-.521 10.578c6.747 7.446 17.109 11.891 27.719 11.891 13.182 0 24.248-8.394 26.314-19.96 1.55-8.685-2.415-20.04-18.198-25.862-7.891-2.911-15.234-6.083-17.403-7.034-1.967-1.539-1.903-3.707-1.774-4.606.174-1.21 1.046-4.168 5.385-5.475 9.214-2.775 17.711 3.954 17.935 4.134 3.166 2.627 7.864 2.209 10.515-.944 2.661-3.166 2.252-7.89-.914-10.551-.593-.498-14.718-12.142-31.856-6.979-8.608 2.593-14.696 9.371-15.891 17.688-1.118 7.792 2.259 15.288 8.815 19.562.331.216.678.405 1.038.565.368.165 9.114 4.058 18.966 7.693 2.899 1.069 9.543 4.104 8.637 9.177-.669 3.741-5.178 7.614-11.569 7.614z"/><path d="m496.875 152.329h-408.797c-7.936 0-14.393 6.457-14.393 14.393v15.339h-22.954v-45.14c0-4.136-3.352-7.489-7.489-7.489s-7.489 3.353-7.489 7.489v302.022h-20.776v-366.618h20.776v30.273c0 4.136 3.352 7.489 7.489 7.489s7.489-3.353 7.489-7.489v-34.066c0-6.167-5.017-11.184-11.184-11.184h-28.363c-6.167-.001-11.184 5.017-11.184 11.184v374.204c0 6.167 5.017 11.184 11.184 11.184h28.362c6.167 0 11.184-5.017 11.184-11.184v-113.529h22.954v15.339c0 7.936 6.457 14.393 14.393 14.393h298.74c4.136 0 7.489-3.353 7.489-7.489s-3.352-7.489-7.489-7.489h-298.155v-176.655h407.628v176.655h-74.108c-4.136 0-7.489 3.353-7.489 7.489s3.352 7.489 7.489 7.489h74.693c7.936 0 14.392-6.457 14.392-14.393v-177.825c0-7.936-6.456-14.392-14.392-14.392zm-423.19 161.9h-22.954v-117.191h22.954z"/><circle cx="118.728" cy="193.26" r="9.985"/><circle cx="466.225" cy="193.26" r="9.985"/><circle cx="118.728" cy="318.007" r="9.985"/><circle cx="466.225" cy="318.007" r="9.985"/></g></g></svg>